# Blender v2.79 (sub 0) OBJ File: 'Taller.-blend.blend'
# www.blender.org
mtllib Coche.mtl
o Cylinder.003_Cylinder.001
v 1.893667 -0.819063 -0.224829
v 1.893667 -0.172278 -0.224829
v 1.893667 -0.819063 -2.866300
v 1.893667 -0.138325 -3.296067
v 1.893667 -0.819063 -1.192325
v 1.893667 -0.172278 -1.192325
v 1.893667 -0.819063 -1.222667
v 1.717404 0.805641 -1.596009
v 1.893667 -0.819063 -2.712917
v 1.717404 0.805641 -2.712916
v 1.657014 0.768084 -1.580506
v 1.819738 -0.134721 -1.207829
v 1.657014 0.737654 -1.654221
v 1.819738 -0.165151 -1.281544
v 1.893667 -0.568600 -2.866300
v 1.893667 -0.568600 -0.224829
v 1.893667 -0.568600 -1.192325
v 1.893667 -0.568600 -1.223765
v 1.893667 -0.568600 -2.712917
v 1.893667 -0.172278 -0.368694
v 1.893667 -0.819063 -0.368694
v 1.893667 -0.568600 -0.368694
v 1.923630 -0.568600 -0.191233
v 1.923630 -0.819063 -0.191233
v 1.923630 -0.568600 -0.369906
v 1.923630 -0.819063 -0.369906
v 1.717404 0.805641 -1.660401
v 1.893667 -0.819063 -1.244619
v 1.893667 -0.568600 -1.245665
v 1.893667 -0.819063 -2.084182
v 1.717404 0.805641 -2.127637
v 1.893667 -0.568600 -2.084706
v 1.893667 -0.819063 -3.896592
v 1.893667 -0.207334 -3.896592
v 1.893667 -0.568600 -3.896592
v 1.851792 -0.284337 -0.224829
v 1.851792 -0.456541 -0.224829
v 1.433582 -0.284337 -0.224829
v 1.433582 -0.456541 -0.224829
v 1.851792 -0.284337 -0.199028
v 1.851792 -0.456541 -0.199028
v 1.433582 -0.284337 -0.199028
v 1.433582 -0.456541 -0.199028
v 1.342080 -0.292142 -3.896592
v 1.852680 -0.292142 -3.896592
v 1.852680 -0.483793 -3.896592
v 1.342080 -0.483793 -3.896592
v 1.342080 -0.292142 -3.918121
v 1.852680 -0.292142 -3.918121
v 1.852680 -0.483793 -3.918121
v 1.342080 -0.483793 -3.918121
v 1.728859 0.742741 -2.050818
v 1.728859 0.742741 -1.715982
v 1.863227 -0.156839 -2.020052
v 1.863227 -0.156839 -1.418770
v 1.725703 0.755475 -2.614791
v 1.865161 -0.174271 -2.614791
v 1.725703 0.755475 -2.218819
v 1.865161 -0.174271 -2.189774
v -0.031316 -0.819063 -0.224829
v -0.031316 -0.172278 -0.224829
v -0.031316 -0.819063 -2.866300
v -0.031316 -0.138325 -3.296067
v -0.031316 -0.819063 -1.192325
v -0.031316 -0.172278 -1.192325
v -0.031316 -0.819063 -1.222667
v 0.144947 0.805641 -1.596009
v -0.031316 -0.819063 -2.712917
v 0.144947 0.805641 -2.712916
v 0.205337 0.768084 -1.580506
v 0.042613 -0.134721 -1.207829
v 0.205337 0.737654 -1.654221
v 0.042613 -0.165151 -1.281544
v -0.031316 -0.568600 -2.866300
v -0.031316 -0.568600 -0.224829
v -0.031316 -0.568600 -1.192325
v -0.031316 -0.568600 -1.223765
v -0.031316 -0.568600 -2.712917
v -0.031316 -0.172278 -0.368694
v -0.031316 -0.819063 -0.368694
v -0.031316 -0.568600 -0.368694
v -0.061279 -0.568600 -0.191233
v -0.061279 -0.819063 -0.191233
v -0.061279 -0.568600 -0.369906
v -0.061279 -0.819063 -0.369906
v 0.144947 0.805641 -1.660401
v -0.031316 -0.819063 -1.244619
v -0.031316 -0.568600 -1.245665
v -0.031316 -0.819063 -2.084182
v 0.144947 0.805641 -2.127637
v -0.031316 -0.568600 -2.084706
v -0.031316 -0.819063 -3.896592
v -0.031316 -0.207334 -3.896592
v -0.031316 -0.568600 -3.896592
v 0.931175 -0.819063 -2.866300
v 0.931175 -0.138325 -3.296067
v 0.931176 -0.819063 -0.224829
v 0.931176 -0.172278 -0.224829
v 0.931176 -0.172278 -1.192325
v 0.931176 -0.819063 -1.192325
v 0.931176 -0.819063 -1.222667
v 0.931176 0.805641 -1.596009
v 0.931175 0.805641 -2.712916
v 0.931175 -0.819063 -2.712916
v 0.931176 -0.134721 -1.207829
v 0.931176 0.768084 -1.580506
v 0.931176 -0.165151 -1.281544
v 0.931176 0.737654 -1.654221
v 0.931176 -0.568600 -0.224829
v 0.931176 -0.172278 -0.368694
v 0.931176 -0.819063 -0.368694
v 0.931176 -0.819063 -0.191233
v 0.931176 -0.568600 -0.191233
v 0.931176 0.805641 -1.660401
v 0.931176 -0.819063 -1.244619
v 0.931176 -0.819063 -2.084182
v 0.931176 0.805641 -2.127637
v 0.931175 -0.819063 -3.896592
v 0.931175 -0.207334 -3.896592
v 0.931175 -0.568600 -3.896592
v 0.010560 -0.284337 -0.224829
v 0.010560 -0.456541 -0.224829
v 0.428769 -0.284337 -0.224829
v 0.428769 -0.456541 -0.224829
v 0.010560 -0.284337 -0.199028
v 0.010560 -0.456541 -0.199028
v 0.428769 -0.284337 -0.199028
v 0.428769 -0.456541 -0.199028
v 0.520271 -0.292142 -3.896592
v 0.009670 -0.292142 -3.896592
v 0.009670 -0.483793 -3.896592
v 0.520271 -0.483793 -3.896592
v 0.520271 -0.292142 -3.918121
v 0.009670 -0.292142 -3.918121
v 0.009670 -0.483793 -3.918121
v 0.520271 -0.483793 -3.918121
v 0.133492 0.742741 -2.050818
v 0.133492 0.742741 -1.715982
v -0.000875 -0.156839 -2.020052
v -0.000875 -0.156839 -1.418770
v 0.136647 0.755475 -2.614791
v -0.002810 -0.174271 -2.614791
v 0.136648 0.755475 -2.218819
v -0.002810 -0.174271 -2.189774
v 0.931175 -0.094568 -3.269035
v 1.816836 -0.094568 -3.269035
v 1.654643 0.761883 -2.739948
v 0.931175 0.761883 -2.739948
v 0.045515 -0.094568 -3.269035
v 0.207708 0.761884 -2.739948
v 0.931175 -0.114735 -3.236391
v 1.816836 -0.114735 -3.236391
v 1.654643 0.741717 -2.707304
v 0.931175 0.741717 -2.707304
v 0.045515 -0.114735 -3.236391
v 0.207708 0.741717 -2.707304
vt 0.165244 0.834740
vt 0.167419 0.825240
vt 0.177505 0.828253
vt 0.177294 0.835717
vt 0.106559 0.818275
vt 0.099241 0.829498
vt 0.098000 0.827015
vt 0.104258 0.816638
vt 0.089905 0.781121
vt 0.109636 0.812885
vt 0.107087 0.812522
vt 0.087183 0.782853
vt 0.117134 0.845628
vt 0.122515 0.886001
vt 0.120667 0.886250
vt 0.114352 0.848185
vt 0.120340 0.772341
vt 0.123289 0.814371
vt 0.122533 0.814350
vt 0.119522 0.772402
vt 0.121335 0.825846
vt 0.120638 0.825711
vt 0.122011 0.825917
vt 0.125194 0.886698
vt 0.121085 0.772286
vt 0.123887 0.814383
vt 0.194140 0.789961
vt 0.156455 0.821630
vt 0.176119 0.779309
vt 0.164855 0.856663
vt 0.144913 0.889453
vt 0.153809 0.832255
vt 0.119008 0.885476
vt 0.112323 0.850560
vt 0.067839 0.852438
vt 0.068085 0.854175
vt 0.068362 0.856364
vt 0.106340 0.817347
vt 0.108793 0.813466
vt 0.105046 0.816123
vt 0.176611 0.847862
vt 0.106863 0.813326
vt 0.086523 0.783295
vt 0.142809 0.817982
vt 0.140439 0.829121
vt 0.153267 0.772286
vt 0.153809 0.832255
vt 0.140439 0.829121
vt 0.113215 0.902147
vt 0.131644 0.905351
vt 0.131644 0.905351
vt 0.113215 0.902147
vt 0.178177 0.838153
vt 0.177918 0.845623
vt 0.211008 0.810552
vt 0.218196 0.829305
vt 0.209685 0.880757
vt 0.217953 0.859594
vt 0.144703 0.926171
vt 0.123398 0.920908
vt 0.133212 0.888331
vt 0.111448 0.914941
vt 0.072536 0.799447
vt 0.072836 0.798890
vt 0.065157 0.828677
vt 0.106494 0.912206
vt 0.104009 0.910789
vt 0.154183 0.154699
vt 0.139184 0.180011
vt 0.103537 0.125587
vt 0.147497 0.119782
vt 0.107977 0.913029
vt 0.209685 0.880757
vt 0.164855 0.856663
vt 0.065342 0.824444
vt 0.098363 0.824631
vt 0.101200 0.819320
vt 0.098060 0.824123
vt 0.100587 0.819633
vt 0.089511 0.813646
vt 0.086829 0.821251
vt 0.418087 0.890188
vt 0.415560 0.894679
vt 0.404985 0.891418
vt 0.407498 0.884925
vt 0.089998 0.814369
vt 0.087485 0.820863
vt 0.196778 0.836917
vt 0.196200 0.837560
vt 0.178670 0.838534
vt 0.195937 0.848342
vt 0.611974 0.840080
vt 0.611007 0.850313
vt 0.594092 0.847676
vt 0.594444 0.841054
vt 0.178318 0.845156
vt 0.195233 0.847794
vt 0.175614 0.098344
vt 0.168387 0.157554
vt 0.160369 0.155921
vt 0.157186 0.095140
vt 0.125194 0.886698
vt 0.133212 0.888331
vt 0.140439 0.829121
vt 0.122011 0.825917
vt 0.188984 0.101478
vt 0.180087 0.158675
vt 0.168387 0.157554
vt 0.175614 0.098344
vt 0.133212 0.888331
vt 0.144913 0.889453
vt 0.165244 0.834740
vt 0.177294 0.835717
vt 0.177505 0.828253
vt 0.167419 0.825240
vt 0.106559 0.818275
vt 0.104258 0.816638
vt 0.098000 0.827015
vt 0.099241 0.829498
vt 0.107087 0.812522
vt 0.109636 0.812885
vt 0.117134 0.845628
vt 0.114352 0.848185
vt 0.120667 0.886250
vt 0.122515 0.886001
vt 0.122533 0.814350
vt 0.123289 0.814371
vt 0.121335 0.825846
vt 0.120638 0.825711
vt 0.122011 0.825917
vt 0.125194 0.886698
vt 0.123887 0.814383
vt 0.156455 0.821630
vt 0.153809 0.832255
vt 0.144913 0.889453
vt 0.164855 0.856663
vt 0.112323 0.850560
vt 0.119008 0.885476
vt 0.108793 0.813466
vt 0.106340 0.817347
vt 0.105046 0.816123
vt 0.176611 0.847862
vt 0.106863 0.813326
vt 0.142809 0.817982
vt 0.140439 0.829121
vt 0.140439 0.829121
vt 0.153809 0.832255
vt 0.122011 0.825917
vt 0.140439 0.829121
vt 0.177918 0.845623
vt 0.178177 0.838153
vt 0.133212 0.888331
vt 0.154183 0.154699
vt 0.147497 0.119782
vt 0.144913 0.889453
vt 0.101200 0.819320
vt 0.098363 0.824631
vt 0.100587 0.819633
vt 0.098060 0.824123
vt 0.089511 0.813646
vt 0.086829 0.821251
vt 0.418087 0.890188
vt 0.407498 0.884925
vt 0.404985 0.891418
vt 0.415560 0.894679
vt 0.087485 0.820863
vt 0.089998 0.814369
vt 0.178670 0.838534
vt 0.196200 0.837560
vt 0.196778 0.836917
vt 0.195937 0.848342
vt 0.611974 0.840080
vt 0.594444 0.841054
vt 0.594092 0.847676
vt 0.611007 0.850313
vt 0.195233 0.847794
vt 0.178318 0.845156
vt 0.175614 0.098344
vt 0.157186 0.095140
vt 0.160369 0.155921
vt 0.168387 0.157554
vt 0.133212 0.888331
vt 0.125194 0.886698
vt 0.188984 0.101478
vt 0.175614 0.098344
vt 0.168387 0.157554
vt 0.180087 0.158675
vt 0.133212 0.888331
vt 0.144913 0.889453
vt 0.164855 0.856663
vt 0.164855 0.856663
vt 0.209685 0.880757
vt 0.144913 0.889453
vt 0.144703 0.926171
vt 0.144703 0.926171
vt 0.144913 0.889453
vt 0.200030 0.125886
vt 0.244859 0.149980
vt 0.179877 0.195393
vt 0.180087 0.158675
vt 0.200030 0.125886
vt 0.180087 0.158675
vt 0.144913 0.889453
vt 0.164855 0.856663
vn 1.0000 0.0000 -0.0000
vn 0.0000 -1.0000 0.0000
vn 0.0000 0.3816 0.9243
vn 0.9454 0.0258 -0.3250
vn 0.9919 0.1272 0.0000
vn 0.9893 0.1172 0.0865
vn -0.9864 -0.1519 0.0627
vn 0.0000 0.9243 -0.3816
vn -0.0404 0.0000 -0.9992
vn 0.0000 1.0000 0.0000
vn 0.9974 0.0721 0.0000
vn 0.9973 0.0737 -0.0000
vn 0.0000 0.0000 -1.0000
vn 0.0000 0.9935 -0.1142
vn 0.0000 0.0000 1.0000
vn -0.0000 -0.9243 0.3816
vn 0.0000 0.5256 -0.8508
vn -1.0000 0.0000 0.0000
vn 0.9890 0.1477 -0.0000
vn 0.9838 0.1792 -0.0000
vn 0.9749 0.1272 -0.1830
vn 0.9524 0.2017 0.2286
vn 0.9889 0.1483 0.0000
vn 0.9800 0.1387 0.1424
vn 0.9866 0.1632 -0.0000
vn 0.9817 0.1345 -0.1348
vn -0.9454 0.0258 -0.3250
vn -0.9919 0.1272 0.0000
vn -0.9893 0.1172 0.0865
vn 0.9864 -0.1519 0.0627
vn 0.0404 0.0000 -0.9992
vn -0.9974 0.0721 0.0000
vn -0.9973 0.0737 0.0000
vn -0.9890 0.1477 0.0000
vn -0.9838 0.1792 0.0000
vn -0.9749 0.1272 -0.1830
vn -0.9524 0.2017 0.2286
vn -0.9889 0.1483 0.0000
vn -0.9800 0.1387 0.1424
vn -0.9866 0.1632 0.0000
vn -0.9817 0.1345 -0.1348
vn 0.0000 0.8508 0.5256
vn -0.0000 -0.8508 -0.5256
vn 0.9873 -0.1353 -0.0836
vn -0.9873 -0.1353 -0.0836
usemtl Material.007
s off
f 15/1/1 3/2/1 33/3/1 35/4/1
f 22/5/1 20/6/1 2/7/1 16/8/1
f 111/9/2 21/10/2 1/11/2 97/12/2
f 6/13/3 8/14/3 11/15/3 12/16/3
f 101/17/2 7/18/2 5/19/2 100/20/2
f 18/21/4 8/14/4 6/13/4 17/22/4
f 29/23/5 27/24/5 8/14/5 18/21/5
f 115/25/2 28/26/2 7/18/2 101/17/2
f 95/27/2 3/2/2 9/28/2 104/29/2
f 15/1/6 4/30/6 10/31/6 19/32/6
f 12/16/7 11/15/7 13/33/7 14/34/7
f 99/35/3 6/13/3 12/16/3 105/36/3
f 105/36/8 12/16/8 14/34/8 107/37/8
f 3/2/1 15/1/1 19/32/1 9/28/1
f 28/26/1 29/23/1 18/21/1 7/18/1
f 7/18/1 18/21/1 17/22/1 5/19/1
f 21/10/9 22/5/9 25/38/9 26/39/9
f 22/5/10 16/8/10 23/40/10 25/38/10
f 4/30/1 15/1/1 35/4/1 34/41/1
f 5/19/1 17/22/1 22/5/1 21/10/1
f 1/11/2 21/10/2 26/39/2 24/42/2
f 100/20/2 5/19/2 21/10/2 111/9/2
f 17/22/1 6/13/1 20/6/1 22/5/1
f 26/39/1 25/38/1 23/40/1 24/42/1
f 97/12/2 1/11/2 24/42/2 112/43/2
f 30/44/1 32/45/1 29/23/1 28/26/1
f 116/46/2 30/44/2 28/26/2 115/25/2
f 32/45/11 19/32/11 57/47/11 59/48/11
f 104/29/2 9/28/2 30/44/2 116/46/2
f 9/28/1 19/32/1 32/45/1 30/44/1
f 29/49/12 32/50/12 54/51/12 55/52/12
f 34/41/13 35/4/13 46/53/13 45/54/13
f 118/55/13 120/56/13 35/4/13 33/3/13
f 96/57/14 4/30/14 34/41/14 119/58/14
f 3/2/2 95/27/2 118/55/2 33/3/2
f 10/31/10 103/59/10 117/60/10 31/61/10
f 31/61/10 117/60/10 114/62/10 27/24/10
f 16/8/10 109/63/10 113/64/10 23/40/10
f 24/42/15 23/40/15 113/64/15 112/43/15
f 6/13/10 99/35/10 110/65/10 20/6/10
f 11/15/16 106/66/16 108/67/16 13/33/16
f 13/68/3 108/69/3 107/70/3 14/71/3
f 8/14/3 102/72/3 106/66/3 11/15/3
f 4/30/17 96/57/17 145/73/17 146/74/17
f 27/24/10 114/62/10 102/72/10 8/14/10
f 20/6/10 110/65/10 98/75/10 2/7/10
f 16/8/15 2/7/15 36/76/15 37/77/15
f 37/77/1 36/76/1 40/78/1 41/79/1
f 109/63/15 16/8/15 37/77/15 39/80/15
f 98/75/15 109/63/15 39/80/15 38/81/15
f 2/7/15 98/75/15 38/81/15 36/76/15
f 41/82/15 40/83/15 42/84/15 43/85/15
f 38/81/18 39/80/18 43/86/18 42/87/18
f 36/76/10 38/81/10 42/87/10 40/78/10
f 39/80/2 37/77/2 41/79/2 43/86/2
f 46/53/2 47/88/2 51/89/2 50/90/2
f 119/58/13 34/41/13 45/54/13 44/91/13
f 120/56/13 119/58/13 44/91/13 47/88/13
f 35/4/13 120/56/13 47/88/13 46/53/13
f 51/92/13 48/93/13 49/94/13 50/95/13
f 44/91/10 45/54/10 49/96/10 48/97/10
f 47/88/18 44/91/18 48/97/18 51/89/18
f 45/54/1 46/53/1 50/90/1 49/96/1
f 54/98/19 52/99/19 53/100/19 55/101/19
f 31/61/20 27/24/20 53/102/20 52/103/20
f 32/45/21 31/61/21 52/103/21 54/104/21
f 27/24/22 29/23/22 55/105/22 53/102/22
f 57/106/23 56/107/23 58/108/23 59/109/23
f 31/61/24 32/45/24 59/48/24 58/110/24
f 10/31/25 31/61/25 58/110/25 56/111/25
f 19/32/26 10/31/26 56/111/26 57/47/26
f 74/112/18 94/113/18 92/114/18 62/115/18
f 81/116/18 75/117/18 61/118/18 79/119/18
f 111/9/2 97/12/2 60/120/2 80/121/2
f 65/122/3 71/123/3 70/124/3 67/125/3
f 101/17/2 100/20/2 64/126/2 66/127/2
f 77/128/27 76/129/27 65/122/27 67/125/27
f 88/130/28 77/128/28 67/125/28 86/131/28
f 115/25/2 101/17/2 66/127/2 87/132/2
f 95/27/2 104/29/2 68/133/2 62/115/2
f 74/112/29 78/134/29 69/135/29 63/136/29
f 71/123/30 73/137/30 72/138/30 70/124/30
f 99/35/3 105/36/3 71/123/3 65/122/3
f 105/36/8 107/37/8 73/137/8 71/123/8
f 62/115/18 68/133/18 78/134/18 74/112/18
f 87/132/18 66/127/18 77/128/18 88/130/18
f 66/127/18 64/126/18 76/129/18 77/128/18
f 80/121/31 85/139/31 84/140/31 81/116/31
f 81/116/10 84/140/10 82/141/10 75/117/10
f 63/136/18 93/142/18 94/113/18 74/112/18
f 64/126/18 80/121/18 81/116/18 76/129/18
f 60/120/2 83/143/2 85/139/2 80/121/2
f 100/20/2 111/9/2 80/121/2 64/126/2
f 76/129/18 81/116/18 79/119/18 65/122/18
f 85/139/18 83/143/18 82/141/18 84/140/18
f 97/12/2 112/43/2 83/143/2 60/120/2
f 89/144/18 87/132/18 88/130/18 91/145/18
f 116/46/2 115/25/2 87/132/2 89/144/2
f 91/145/32 144/146/32 142/147/32 78/134/32
f 104/29/2 116/46/2 89/144/2 68/133/2
f 68/133/18 89/144/18 91/145/18 78/134/18
f 88/130/33 140/148/33 139/149/33 91/145/33
f 93/142/13 130/150/13 131/151/13 94/113/13
f 118/55/13 92/114/13 94/113/13 120/56/13
f 96/57/14 119/58/14 93/142/14 63/136/14
f 62/115/2 92/114/2 118/55/2 95/27/2
f 69/135/10 90/152/10 117/60/10 103/59/10
f 90/152/10 86/131/10 114/62/10 117/60/10
f 75/117/10 82/141/10 113/64/10 109/63/10
f 83/143/15 112/43/15 113/64/15 82/141/15
f 65/122/10 79/119/10 110/65/10 99/35/10
f 70/124/16 72/138/16 108/67/16 106/66/16
f 72/153/3 73/154/3 107/70/3 108/69/3
f 67/125/3 70/124/3 106/66/3 102/72/3
f 10/31/17 4/30/17 146/74/17 147/155/17
f 86/131/10 67/125/10 102/72/10 114/62/10
f 79/119/10 61/118/10 98/75/10 110/65/10
f 75/117/15 122/156/15 121/157/15 61/118/15
f 122/156/18 126/158/18 125/159/18 121/157/18
f 109/63/15 124/160/15 122/156/15 75/117/15
f 98/75/15 123/161/15 124/160/15 109/63/15
f 61/118/15 121/157/15 123/161/15 98/75/15
f 126/162/15 128/163/15 127/164/15 125/165/15
f 123/161/1 127/166/1 128/167/1 124/160/1
f 121/157/10 125/159/10 127/166/10 123/161/10
f 124/160/2 128/167/2 126/158/2 122/156/2
f 131/151/2 135/168/2 136/169/2 132/170/2
f 119/58/13 129/171/13 130/150/13 93/142/13
f 120/56/13 132/170/13 129/171/13 119/58/13
f 94/113/13 131/151/13 132/170/13 120/56/13
f 136/172/13 135/173/13 134/174/13 133/175/13
f 129/171/10 133/176/10 134/177/10 130/150/10
f 132/170/1 136/169/1 133/176/1 129/171/1
f 130/150/18 134/177/18 135/168/18 131/151/18
f 139/178/34 140/179/34 138/180/34 137/181/34
f 90/152/35 137/182/35 138/183/35 86/131/35
f 91/145/36 139/149/36 137/182/36 90/152/36
f 86/131/37 138/183/37 140/148/37 88/130/37
f 142/184/38 144/185/38 143/186/38 141/187/38
f 90/152/39 143/188/39 144/146/39 91/145/39
f 69/135/40 141/189/40 143/188/40 90/152/40
f 78/134/41 142/147/41 141/189/41 69/135/41
f 145/73/42 149/190/42 155/191/42 151/192/42
f 150/193/43 148/194/43 154/195/43 156/196/43
f 63/136/17 69/135/17 150/193/17 149/190/17
f 103/59/17 10/31/17 147/155/17 148/194/17
f 96/57/17 63/136/17 149/190/17 145/73/17
f 69/135/17 103/59/17 148/194/17 150/193/17
f 152/197/17 151/198/17 154/199/17 153/200/17
f 155/201/17 156/202/17 154/199/17 151/198/17
f 148/194/43 147/155/43 153/203/43 154/195/43
f 146/74/42 145/73/42 151/192/42 152/204/42
f 149/190/44 150/193/44 156/196/44 155/191/44
f 147/155/45 146/74/45 152/204/45 153/203/45
