# Blender v2.79 (sub 0) OBJ File: 'Taller.-blend.blend'
# www.blender.org
mtllib Barril.mtl
o Cylinder.002_Cylinder.009
v -1.497236 -1.084121 -0.896149
v -1.497236 -0.220128 -0.896149
v -1.311252 -1.084121 -0.769283
v -1.311252 -0.220128 -0.769283
v -1.235358 -1.084121 -0.557327
v -1.235358 -0.220128 -0.557327
v -1.298543 -1.084121 -0.341241
v -1.298543 -0.220128 -0.341241
v -1.476672 -1.084121 -0.203564
v -1.476672 -0.220128 -0.203564
v -1.701707 -1.084121 -0.196882
v -1.701707 -0.220128 -0.196882
v -1.887691 -1.084121 -0.323749
v -1.887691 -0.220128 -0.323749
v -1.963585 -1.084121 -0.535704
v -1.963585 -0.220128 -0.535704
v -1.900401 -1.084121 -0.751790
v -1.900401 -0.220128 -0.751790
v -1.722271 -1.084121 -0.889468
v -1.722271 -0.220128 -0.889468
v -1.343215 -0.220128 -0.744578
v -1.508574 -0.220128 -0.857375
v -1.275738 -0.220128 -0.556128
v -1.331916 -0.220128 -0.364006
v -1.490291 -0.220128 -0.241597
v -1.690369 -0.220128 -0.235656
v -1.855728 -0.220128 -0.348453
v -1.923205 -0.220128 -0.536903
v -1.867028 -0.220128 -0.729025
v -1.708653 -0.220128 -0.851435
v -1.343215 -0.263884 -0.744578
v -1.508574 -0.263884 -0.857375
v -1.275738 -0.263884 -0.556128
v -1.331916 -0.263884 -0.364006
v -1.490291 -0.263884 -0.241597
v -1.690369 -0.263884 -0.235656
v -1.855728 -0.263884 -0.348453
v -1.923205 -0.263884 -0.536903
v -1.867028 -0.263884 -0.729025
v -1.708653 -0.263884 -0.851435
v -1.518605 -0.263884 -0.739094
v -1.539077 -0.263884 -0.753059
v -1.510250 -0.263884 -0.715763
v -1.517206 -0.263884 -0.691977
v -1.536813 -0.263884 -0.676822
v -1.561584 -0.263884 -0.676086
v -1.582057 -0.263884 -0.690051
v -1.590411 -0.263884 -0.713383
v -1.583456 -0.263884 -0.737168
v -1.563848 -0.263884 -0.752323
v -1.518605 -0.236672 -0.739094
v -1.539077 -0.236672 -0.753059
v -1.510250 -0.236672 -0.715763
v -1.517206 -0.236672 -0.691977
v -1.536813 -0.236672 -0.676822
v -1.561584 -0.236672 -0.676086
v -1.582057 -0.236672 -0.690051
v -1.590411 -0.236672 -0.713383
v -1.583456 -0.236672 -0.737168
v -1.563848 -0.236672 -0.752323
v -1.497236 -0.796123 -0.896149
v -1.497236 -0.508126 -0.896149
v -1.311252 -0.508126 -0.769283
v -1.311252 -0.796123 -0.769283
v -1.235358 -0.508126 -0.557327
v -1.235358 -0.796123 -0.557327
v -1.298543 -0.508126 -0.341241
v -1.298543 -0.796123 -0.341241
v -1.476672 -0.508126 -0.203564
v -1.476672 -0.796123 -0.203564
v -1.701707 -0.508126 -0.196882
v -1.701707 -0.796123 -0.196882
v -1.887691 -0.508126 -0.323749
v -1.887691 -0.796123 -0.323749
v -1.963585 -0.508126 -0.535704
v -1.963585 -0.796123 -0.535704
v -1.900401 -0.508126 -0.751790
v -1.900401 -0.796123 -0.751790
v -1.722271 -0.508126 -0.889468
v -1.722271 -0.796123 -0.889468
vt 0.894102 0.451894
vt 0.892074 0.464310
vt 0.880833 0.463669
vt 0.881603 0.450643
vt 0.869122 0.464198
vt 0.868566 0.450613
vt 0.857011 0.465970
vt 0.855023 0.451899
vt 0.844578 0.469096
vt 0.841015 0.454610
vt 0.831887 0.473752
vt 0.826541 0.458883
vt 0.818935 0.480367
vt 0.811433 0.464913
vt 0.805718 0.490741
vt 0.795048 0.472982
vt 0.929191 0.462780
vt 0.923078 0.475194
vt 0.912934 0.469264
vt 0.917692 0.457958
vt 0.902791 0.466108
vt 0.902308 0.468079
vt 0.891825 0.466395
vt 0.906090 0.454319
vt 0.724011 0.537659
vt 0.713660 0.569516
vt 0.686561 0.589205
vt 0.653064 0.589205
vt 0.625965 0.569516
vt 0.615614 0.537659
vt 0.625965 0.505802
vt 0.653064 0.486114
vt 0.686561 0.486114
vt 0.713660 0.505802
vt 0.701192 0.543075
vt 0.695161 0.539051
vt 0.696040 0.538116
vt 0.701934 0.541964
vt 0.912127 0.471066
vt 0.921429 0.476633
vt 0.820497 0.482797
vt 0.808549 0.492621
vt 0.832942 0.476184
vt 0.845302 0.471488
vt 0.857460 0.468308
vt 0.880805 0.465852
vt 0.869324 0.466466
vt 0.160264 0.982137
vt 0.162568 0.975987
vt 0.180633 0.978852
vt 0.180183 0.980203
vt 0.690175 0.526355
vt 0.692643 0.519534
vt 0.693835 0.520316
vt 0.691531 0.526466
vt 0.706785 0.511671
vt 0.717026 0.511671
vt 0.716908 0.513685
vt 0.707035 0.513445
vt 0.733729 0.516385
vt 0.741151 0.526027
vt 0.739200 0.527488
vt 0.732325 0.518048
vt 0.691184 0.533371
vt 0.692411 0.532855
vt 0.698386 0.514280
vt 0.699159 0.515642
vt 0.727841 0.513048
vt 0.727276 0.515027
vt 0.674544 0.485564
vt 0.676396 0.485273
vt 0.676189 0.486838
vt 0.674886 0.486915
vt 0.175768 0.969116
vt 0.185641 0.969357
vt 0.185027 0.976642
vt 0.183175 0.976933
vt 0.201059 0.973719
vt 0.207934 0.983159
vt 0.189583 0.979602
vt 0.188444 0.978267
vt 0.161144 0.988526
vt 0.180300 0.981512
vt 0.167893 0.971313
vt 0.181659 0.977702
vt 0.196010 0.970699
vt 0.186855 0.977258
vt 0.164773 0.993788
vt 0.180824 0.982647
vt 0.170667 0.997635
vt 0.181630 0.983414
vt 0.597138 0.470268
vt 0.611152 0.489557
vt 0.611152 0.513400
vt 0.597138 0.532689
vt 0.574462 0.540056
vt 0.551786 0.532689
vt 0.537772 0.513400
vt 0.537772 0.489557
vt 0.551786 0.470268
vt 0.574462 0.462900
vt 0.679813 0.486898
vt 0.680952 0.488232
vt 0.679886 0.489282
vt 0.678753 0.488130
vt 0.671669 0.490143
vt 0.671552 0.488834
vt 0.672646 0.489013
vt 0.672682 0.489925
vt 0.673028 0.486333
vt 0.673765 0.487389
vt 0.678224 0.485889
vt 0.677526 0.487288
vt 0.672194 0.491278
vt 0.673039 0.490784
vt 0.672002 0.487483
vt 0.673003 0.488128
vt 0.673000 0.492044
vt 0.673611 0.491502
vt 0.913462 0.426711
vt 0.909495 0.441041
vt 0.896374 0.438060
vt 0.899381 0.422979
vt 0.224070 0.977894
vt 0.221974 0.986068
vt 0.214594 0.984575
vt 0.215993 0.976058
vt 0.926734 0.431097
vt 0.922103 0.444924
vt 0.231832 0.980284
vt 0.229117 0.988308
vt 0.939462 0.435736
vt 0.934459 0.449465
vt 0.239439 0.983080
vt 0.236196 0.991277
vt 0.798730 0.428457
vt 0.804668 0.447412
vt 0.787147 0.453919
vt 0.780538 0.434408
vt 0.159536 0.981816
vt 0.163701 0.992590
vt 0.153614 0.997557
vt 0.148750 0.985822
vt 0.816826 0.423644
vt 0.821382 0.442148
vt 0.169826 0.978575
vt 0.173002 0.988877
vt 0.834616 0.420387
vt 0.837524 0.438402
vt 0.179763 0.976269
vt 0.181913 0.986247
vt 0.851912 0.418786
vt 0.853141 0.436207
vt 0.189378 0.974918
vt 0.190536 0.984578
vt 0.868550 0.418786
vt 0.868192 0.435497
vt 0.198643 0.974481
vt 0.198874 0.983786
vt 0.884402 0.420249
vt 0.882615 0.436160
vt 0.207523 0.974889
vt 0.206899 0.983805
vn 0.5635 0.0000 -0.8261
vn 0.9415 0.0000 -0.3371
vn 0.9598 0.0000 0.2807
vn 0.6115 0.0000 0.7912
vn 0.0297 0.0000 0.9996
vn -0.5635 0.0000 0.8261
vn -0.9415 0.0000 0.3371
vn -0.9598 0.0000 -0.2807
vn 0.0000 1.0000 -0.0000
vn -0.6115 0.0000 -0.7912
vn -0.0297 0.0000 -0.9996
vn 0.0000 -1.0000 -0.0000
usemtl Material.005
s off
f 62/1/1 2/2/1 4/3/1 63/4/1
f 63/4/2 4/3/2 6/5/2 65/6/2
f 65/6/3 6/5/3 8/7/3 67/8/3
f 67/8/4 8/7/4 10/9/4 69/10/4
f 69/10/5 10/9/5 12/11/5 71/12/5
f 71/12/6 12/11/6 14/13/6 73/14/6
f 73/14/7 14/13/7 16/15/7 75/16/7
f 75/17/8 16/18/8 18/19/8 77/20/8
f 2/2/9 20/21/9 30/22/9 22/23/9
f 77/20/10 18/19/10 20/21/10 79/24/10
f 79/24/11 20/21/11 2/2/11 62/1/11
f 1/25/12 3/26/12 5/27/12 7/28/12 9/29/12 11/30/12 13/31/12 15/32/12 17/33/12 19/34/12
f 28/35/2 27/36/2 37/37/2 38/38/2
f 20/21/9 18/19/9 29/39/9 30/22/9
f 18/19/9 16/18/9 28/40/9 29/39/9
f 16/15/9 14/13/9 27/41/9 28/42/9
f 14/13/9 12/11/9 26/43/9 27/41/9
f 12/11/9 10/9/9 25/44/9 26/43/9
f 10/9/9 8/7/9 24/45/9 25/44/9
f 4/3/9 2/2/9 22/23/9 21/46/9
f 8/7/9 6/5/9 23/47/9 24/45/9
f 6/5/9 4/3/9 21/46/9 23/47/9
f 35/48/9 34/49/9 44/50/9 45/51/9
f 25/52/10 24/53/10 34/54/10 35/55/10
f 21/56/6 22/57/6 32/58/6 31/59/6
f 29/60/3 28/61/3 38/62/3 39/63/3
f 26/64/11 25/52/11 35/55/11 36/65/11
f 23/66/7 21/56/7 31/59/7 33/67/7
f 30/68/4 29/60/4 39/63/4 40/69/4
f 27/36/1 26/64/1 36/65/1 37/37/1
f 24/53/8 23/66/8 33/67/8 34/54/8
f 22/57/5 30/68/5 40/69/5 32/58/5
f 41/70/1 42/71/1 52/72/1 51/73/1
f 31/74/9 32/75/9 42/76/9 41/77/9
f 39/78/9 38/79/9 48/80/9 49/81/9
f 36/82/9 35/48/9 45/51/9 46/83/9
f 33/84/9 31/74/9 41/77/9 43/85/9
f 40/86/9 39/78/9 49/81/9 50/87/9
f 37/88/9 36/82/9 46/83/9 47/89/9
f 34/49/9 33/84/9 43/85/9 44/50/9
f 32/75/9 40/86/9 50/87/9 42/76/9
f 38/90/9 37/88/9 47/89/9 48/91/9
f 51/92/9 52/93/9 60/94/9 59/95/9 58/96/9 57/97/9 56/98/9 55/99/9 54/100/9 53/101/9
f 49/102/8 48/103/8 58/104/8 59/105/8
f 46/106/5 45/107/5 55/108/5 56/109/5
f 43/110/2 41/70/2 51/73/2 53/111/2
f 50/112/10 49/102/10 59/105/10 60/113/10
f 47/114/6 46/106/6 56/109/6 57/115/6
f 44/116/3 43/110/3 53/111/3 54/117/3
f 42/71/11 50/112/11 60/113/11 52/72/11
f 48/118/7 47/114/7 57/115/7 58/119/7
f 45/107/4 44/116/4 54/117/4 55/108/4
f 19/120/11 80/121/11 61/122/11 1/123/11
f 80/124/11 79/125/11 62/126/11 61/127/11
f 17/128/10 78/129/10 80/121/10 19/120/10
f 78/130/10 77/131/10 79/125/10 80/124/10
f 15/132/8 76/133/8 78/129/8 17/128/8
f 76/134/8 75/135/8 77/131/8 78/130/8
f 13/136/7 74/137/7 76/138/7 15/139/7
f 74/140/7 73/141/7 75/142/7 76/143/7
f 11/144/6 72/145/6 74/137/6 13/136/6
f 72/146/6 71/147/6 73/141/6 74/140/6
f 9/148/5 70/149/5 72/145/5 11/144/5
f 70/150/5 69/151/5 71/147/5 72/146/5
f 7/152/4 68/153/4 70/149/4 9/148/4
f 68/154/4 67/155/4 69/151/4 70/150/4
f 5/156/3 66/157/3 68/153/3 7/152/3
f 66/158/3 65/159/3 67/155/3 68/154/3
f 3/160/2 64/161/2 66/157/2 5/156/2
f 64/162/2 63/163/2 65/159/2 66/158/2
f 1/123/1 61/122/1 64/161/1 3/160/1
f 61/127/1 62/126/1 63/163/1 64/162/1
