# 3ds Max Wavefront OBJ Exporter v0.97b - (c)2007 guruware
# File Created: 29.07.2019 13:07:32

mtllib Ground.mtl

#
# object Cube_001
#

v  -28.4367 1.6243 4.2431
v  -26.8723 1.6243 4.2431
v  -26.8723 1.6243 2.8620
v  -28.4367 1.6243 2.8620
v  -6.9493 1.6243 -19.2310
v  -6.9493 1.6243 -20.6624
v  -8.6679 1.6243 -20.6624
v  -8.6679 1.6243 -19.2310
v  -6.9493 1.6243 2.8620
v  -8.6679 1.6243 2.8620
v  -8.6679 1.6243 4.2431
v  -26.8723 1.6243 -20.6624
v  -28.4367 1.6243 -20.6624
v  -28.4367 1.6243 -19.2310
v  -26.8723 1.6243 -19.2310
v  -6.9493 1.6243 4.2431
# 16 vertices

vn 0.0000 1.0000 -0.0000
# 1 vertex normals

vt 0.9800 0.9800 0.0000
vt 0.8629 0.9800 0.0000
vt 0.8629 0.8816 0.0000
vt 0.9800 0.8816 0.0000
vt 0.0200 0.1184 0.0000
vt 0.0200 0.0200 0.0000
vt 0.1536 0.0200 0.0000
vt 0.1536 0.1184 0.0000
vt 0.0200 0.8816 0.0000
vt 0.1536 0.8816 0.0000
vt 0.1536 0.9800 0.0000
vt 0.8629 0.0200 0.0000
vt 0.9800 0.0200 0.0000
vt 0.9800 0.1184 0.0000
vt 0.8629 0.1184 0.0000
vt 0.0200 0.9800 0.0000
# 16 texture coords

o Cube_001
g Cube_001
usemtl Ground_Suelo_Material_005
s off
f 1/1/1 2/2/1 3/3/1 4/4/1 
f 5/5/1 6/6/1 7/7/1 8/8/1 
f 9/9/1 5/5/1 8/8/1 10/10/1 
f 2/2/1 11/11/1 10/10/1 3/3/1 
f 12/12/1 13/13/1 14/14/1 15/15/1 
f 15/15/1 14/14/1 4/4/1 3/3/1 
f 7/7/1 12/12/1 15/15/1 8/8/1 
f 8/8/1 15/15/1 3/3/1 10/10/1 
f 11/11/1 16/16/1 9/9/1 10/10/1 
# 9 polygons

